<svg width="121" height="120" viewBox="0 0 121 120" fill="none" xmlns="http://www.w3.org/2000/svg">
<ellipse cx="60.5" cy="60" rx="60.5" ry="60" fill="#00FF5F"/>
<g clip-path="url(#clip0_117_6)">
<path d="M60.5026 49.343L57.2805 53.9634C56.5121 55.1423 56.4538 56.6225 57.148 57.9018C57.8317 59.1599 59.0823 59.9159 60.4973 59.9159C61.9123 59.9159 63.1629 59.1652 63.8466 57.9018C64.5408 56.6225 64.4878 55.1423 63.6982 53.9369L60.4973 49.3377L60.5026 49.343ZM46.8194 38.1146C44.9116 38.1146 42.9985 38.6168 41.2973 39.6636C38.7801 41.2125 37.0366 43.6495 36.39 46.5201C35.7435 49.3906 36.2787 52.3352 37.8951 54.7986L55.0018 79.8458C56.2577 81.6855 58.4199 82.8802 60.5026 82.8855C62.5906 82.8802 64.7475 81.6855 66.0088 79.8458L83.126 54.7828C84.7265 52.3352 85.2617 49.3906 84.6205 46.5201C83.974 43.6495 82.2357 41.2125 79.7132 39.6636C74.7529 36.6133 68.0544 38.2045 64.7793 43.2108L61.7957 47.4928L65.4682 52.7634C66.6871 54.6242 66.7772 56.9714 65.7226 58.9168C64.6627 60.8728 62.7125 62.0358 60.5079 62.0358C58.3033 62.0358 56.3531 60.8675 55.2932 58.9168C54.2386 56.9766 54.3287 54.6242 55.5317 52.7898L59.2201 47.4981L56.2524 43.2425C54.0849 39.9332 50.4548 38.1146 46.8194 38.1146ZM60.5132 85.0001C57.6939 84.9895 54.917 83.4723 53.2529 81.0352L36.125 55.9722C34.1854 53.0065 33.5495 49.491 34.3179 46.0549C35.0863 42.624 37.169 39.7111 40.1791 37.8609C46.1092 34.2132 54.1061 36.0952 58.0013 42.053L60.4973 45.6372L63.0146 42.0266C66.8991 36.0952 74.8907 34.2132 80.8208 37.8609C83.8309 39.7111 85.9136 42.624 86.682 46.0549C87.4504 49.491 86.8145 53.0012 84.8855 55.9511L67.7523 81.0299C66.0882 83.467 63.3113 84.9842 60.5079 84.9948" fill="black"/>
</g>
<defs>
<clipPath id="clip0_117_6">
<rect width="53" height="49" fill="white" transform="translate(34 36)"/>
</clipPath>
</defs>
</svg>
