<svg width="56" height="56" viewBox="0 0 56 56" fill="none" xmlns="http://www.w3.org/2000/svg">
<circle cx="28" cy="28" r="28" fill="#00FF5F"/>
<g clip-path="url(#clip0_117_9)">
<path d="M28.0013 23.2629L26.5423 25.4316C26.1943 25.985 26.1679 26.6798 26.4823 27.2803C26.7918 27.8709 27.3582 28.2257 27.9989 28.2257C28.6397 28.2257 29.206 27.8733 29.5156 27.2803C29.8299 26.6798 29.8059 25.985 29.4484 25.4192L27.9989 23.2604L28.0013 23.2629ZM21.8051 17.9924C20.9412 17.9924 20.0749 18.2282 19.3046 18.7195C18.1647 19.4465 17.3752 20.5905 17.0824 21.9378C16.7896 23.2852 17.032 24.6674 17.7639 25.8237L25.5104 37.5805C26.0791 38.4441 27.0582 39.0048 28.0013 39.0073C28.9468 39.0048 29.9235 38.4441 30.4947 37.5805L38.2459 25.8163C38.9706 24.6674 39.213 23.2852 38.9226 21.9378C38.6299 20.5905 37.8427 19.4465 36.7005 18.7195C34.4543 17.2877 31.421 18.0346 29.9379 20.3845L28.5869 22.3944L30.2499 24.8684C30.8018 25.7418 30.8426 26.8436 30.3651 27.7567C29.8851 28.6748 29.002 29.2207 28.0037 29.2207C27.0054 29.2207 26.1223 28.6723 25.6424 27.7567C25.1648 26.846 25.2056 25.7418 25.7504 24.8808L27.4206 22.3969L26.0767 20.3994C25.0952 18.846 23.4514 17.9924 21.8051 17.9924ZM28.0061 39.9999C26.7295 39.9949 25.472 39.2828 24.7185 38.1388L16.9624 26.3746C16.0841 24.9825 15.7961 23.3324 16.1441 21.7195C16.4921 20.1091 17.4352 18.7418 18.7982 17.8733C21.4836 16.1612 25.1048 17.0445 26.8686 19.8411L27.9989 21.5235L29.1388 19.8287C30.8978 17.0445 34.5167 16.1612 37.202 17.8733C38.5651 18.7418 39.5082 20.1091 39.8561 21.7195C40.2041 23.3324 39.9161 24.98 39.0426 26.3646L31.2842 38.1364C30.5307 39.2803 29.2732 39.9924 28.0037 39.9974" fill="black"/>
</g>
<defs>
<clipPath id="clip0_117_9">
<rect width="24" height="23" fill="white" transform="translate(16 17)"/>
</clipPath>
</defs>
</svg>
