<svg width="56" height="56" viewBox="0 0 56 56" fill="none" xmlns="http://www.w3.org/2000/svg">
<circle cx="28" cy="28" r="28" fill="#00FF5F"/>
<path d="M35.331 27.9287C34.8558 27.9287 34.4697 28.314 34.4697 28.7882C34.4697 29.2624 34.8558 29.6477 35.331 29.6477C35.8062 29.6477 36.1923 29.2624 36.1923 28.7882C36.1923 28.314 35.8062 27.9287 35.331 27.9287Z" fill="black"/>
<path d="M33.3181 25.9199C32.8429 25.9199 32.4568 26.3052 32.4568 26.7794C32.4568 27.2536 32.8429 27.6389 33.3181 27.6389C33.7933 27.6389 34.1794 27.2536 34.1794 26.7794C34.1794 26.3052 33.7933 25.9199 33.3181 25.9199Z" fill="black"/>
<path d="M23.253 26.213H22.0947V25.0571C22.0947 24.7443 21.8406 24.4907 21.5271 24.4907C21.2136 24.4907 20.9595 24.7443 20.9595 25.0571V26.213H19.8012C19.4877 26.213 19.2336 26.4666 19.2336 26.7794C19.2336 27.0923 19.4877 27.3458 19.8012 27.3458H20.9595V28.5017C20.9595 28.8145 21.2136 29.0681 21.5271 29.0681C21.8406 29.0681 22.0947 28.8145 22.0947 28.5017V27.3458H23.253C23.5665 27.3458 23.8206 27.0923 23.8206 26.7794C23.8206 26.4666 23.5665 26.213 23.253 26.213Z" fill="black"/>
<path d="M13.2837 23.5686L12.0297 34.2086C11.8878 35.4237 12.2706 36.6454 13.0857 37.5609C13.9008 38.4764 15.0723 39 16.2999 39C17.6034 39 18.8145 38.4171 19.6263 37.3963L23.5137 32.5093H33.3708L37.2054 37.36C38.0304 38.404 39.2712 39 40.611 39H40.6803C41.9112 39 43.0893 38.4731 43.9077 37.5543C44.7262 36.6356 45.1123 35.4072 44.9703 34.1855L43.7163 23.5653C43.3401 20.3941 40.644 18 37.4397 18H19.5603C16.356 18 13.6566 20.3941 13.2837 23.5686ZM22.9659 31.3765H22.4577C21.0288 31.3765 19.6626 30.7673 18.7089 29.7036C17.7552 28.64 17.2998 27.2173 17.4582 25.8013C17.6958 23.6674 19.5009 22.0571 21.6525 22.0571C23.2464 22.0571 24.6423 22.8968 25.3848 24.303C26.124 25.7025 26.0382 27.3194 25.1472 28.6301L22.9593 31.3798L22.9659 31.3765ZM33.9219 31.3765L31.8528 28.7585C30.9387 27.4281 30.8397 25.7816 31.5921 24.3491C32.3478 22.9133 33.7668 22.0571 35.3937 22.0571C37.5222 22.0571 39.3504 23.6443 39.6441 25.7486C39.8421 27.1679 39.4131 28.6004 38.4726 29.6806C37.5321 30.7607 36.1659 31.3798 34.7337 31.3798H33.9252L33.9219 31.3765ZM42.5844 23.7003L43.8384 34.3205C43.944 35.2195 43.6602 36.1251 43.0563 36.8002C42.4524 37.4786 41.5878 37.8672 40.677 37.8672H40.6077C39.6178 37.8672 38.7003 37.4259 38.0931 36.6586L34.8129 32.5093C36.5454 32.483 38.1822 31.7256 39.3207 30.4215C40.479 29.0944 41.0037 27.3326 40.7596 25.5906C40.3899 22.9265 38.0799 20.921 35.3838 20.921C33.3279 20.921 31.5327 22.0044 30.579 23.8222C29.6253 25.6367 29.754 27.7311 30.9222 29.4171C30.9288 29.427 30.9354 29.4369 30.942 29.4468L32.4699 31.3798H24.408L26.0481 29.3183C26.0481 29.3183 26.0646 29.2986 26.0712 29.2854C27.213 27.6191 27.3285 25.5576 26.3847 23.7728C25.4409 21.9879 23.6688 20.921 21.6459 20.921C18.9135 20.921 16.6233 22.966 16.3197 25.6729C16.125 27.4116 16.6827 29.1537 17.8509 30.4577C18.9333 31.6663 20.4513 32.3941 22.0617 32.4962L18.7254 36.6915C18.1314 37.4391 17.2437 37.8672 16.2867 37.8672C15.3825 37.8672 14.5212 37.4819 13.9206 36.8068C13.32 36.135 13.0362 35.2327 13.1418 34.3403L14.4123 23.7003C14.7192 21.0955 16.9335 19.1328 19.5603 19.1328H37.4397C40.0665 19.1328 42.2808 21.0955 42.5877 23.7003H42.5844Z" fill="black"/>
<path d="M37.344 25.9199C36.8688 25.9199 36.4827 26.3052 36.4827 26.7794C36.4827 27.2536 36.8688 27.6389 37.344 27.6389C37.8192 27.6389 38.2053 27.2536 38.2053 26.7794C38.2053 26.3052 37.8192 25.9199 37.344 25.9199Z" fill="black"/>
<path d="M35.331 23.9111C34.8558 23.9111 34.4697 24.2964 34.4697 24.7706C34.4697 25.2448 34.8558 25.6301 35.331 25.6301C35.8062 25.6301 36.1923 25.2448 36.1923 24.7706C36.1923 24.2964 35.8062 23.9111 35.331 23.9111Z" fill="black"/>
</svg>
