<svg width="1440" height="32" viewBox="0 0 1440 32" fill="none" xmlns="http://www.w3.org/2000/svg">
<rect width="1618" height="32" transform="translate(-89)" fill="#00FF5F"/>
<path d="M-76.866 21.156C-77.6633 21.156 -78.3783 21.039 -79.011 20.805C-79.635 20.5623 -80.207 20.2113 -80.727 19.752L-79.674 18.335C-79.2927 18.6557 -78.8593 18.907 -78.374 19.089C-77.8887 19.271 -77.3773 19.362 -76.84 19.362C-76.3893 19.362 -76.047 19.2927 -75.813 19.154C-75.579 19.0067 -75.462 18.7943 -75.462 18.517C-75.462 18.205 -75.592 17.9797 -75.852 17.841C-76.112 17.7023 -76.5713 17.5593 -77.23 17.412C-77.9753 17.2647 -78.569 17.087 -79.011 16.879C-79.453 16.6623 -79.7823 16.3807 -79.999 16.034C-80.2157 15.6787 -80.324 15.215 -80.324 14.643C-80.324 14.149 -80.1853 13.707 -79.908 13.317C-79.6307 12.927 -79.2363 12.6193 -78.725 12.394C-78.2137 12.1687 -77.6243 12.056 -76.957 12.056C-76.2637 12.056 -75.6397 12.173 -75.085 12.407C-74.5217 12.6323 -74.0103 12.9877 -73.551 13.473L-74.708 14.708C-75.0113 14.4133 -75.3623 14.1923 -75.761 14.045C-76.1597 13.8977 -76.5627 13.824 -76.97 13.824C-77.412 13.824 -77.7457 13.8933 -77.971 14.032C-78.1963 14.1707 -78.309 14.3657 -78.309 14.617C-78.309 14.8163 -78.2527 14.9767 -78.14 15.098C-78.0273 15.2193 -77.8453 15.3233 -77.594 15.41C-77.3427 15.488 -76.9657 15.5833 -76.463 15.696C-75.4057 15.9213 -74.6343 16.2507 -74.149 16.684C-73.6637 17.1173 -73.421 17.7067 -73.421 18.452C-73.421 19.2753 -73.7243 19.934 -74.331 20.428C-74.929 20.9133 -75.774 21.156 -76.866 21.156ZM-71.8105 12.212H-65.7005V14.006H-69.8475V15.657H-66.2205V17.425H-69.8475V19.18H-65.5835V21H-71.8105V12.212ZM-63.9648 12.212H-62.1318L-59.2718 17.503L-56.3208 12.212H-54.5138V21H-56.4898V15.761L-58.4788 19.414H-60.0908L-62.0408 15.787V21H-63.9648V12.212ZM-49.9916 12.212H-47.8726L-44.5706 21H-46.6896L-47.3266 19.115H-50.6416L-51.2786 21H-53.3196L-49.9916 12.212ZM-47.8856 17.425L-48.9776 14.214L-50.0826 17.425H-47.8856ZM-43.373 12.212H-41.696L-37.822 17.542V12.212H-35.833V21H-37.51L-41.384 15.657V21H-43.373V12.212ZM-31.3041 12.212H-29.1851L-25.8831 21H-28.0021L-28.6391 19.115H-31.9541L-32.5911 21H-34.6321L-31.3041 12.212ZM-29.1981 17.425L-30.2901 14.214L-31.3951 17.425H-29.1981ZM-21.372 12.212H-19.695L-15.821 17.542V12.212H-13.832V21H-15.509L-19.383 15.657V21H-21.372V12.212ZM-11.8252 12.212H-5.71517V14.006H-9.86217V15.657H-6.23517V17.425H-9.86217V19.18H-5.59817V21H-11.8252V12.212ZM-1.56147 16.424L-4.56447 12.212H-2.12047L-0.248468 14.942L1.51953 12.212H3.87253L0.921532 16.424L4.11953 21H1.70153L-0.391469 17.88L-2.41947 21H-4.77247L-1.56147 16.424ZM7.36841 14.136H4.75541V12.212H11.9834V14.136H9.37041V21H7.36841V14.136Z" fill="black"/>
<circle cx="24" cy="16" r="3" fill="black"/>
<path d="M39.134 21.156C38.3367 21.156 37.6217 21.039 36.989 20.805C36.365 20.5623 35.793 20.2113 35.273 19.752L36.326 18.335C36.7073 18.6557 37.1407 18.907 37.626 19.089C38.1113 19.271 38.6227 19.362 39.16 19.362C39.6107 19.362 39.953 19.2927 40.187 19.154C40.421 19.0067 40.538 18.7943 40.538 18.517C40.538 18.205 40.408 17.9797 40.148 17.841C39.888 17.7023 39.4287 17.5593 38.77 17.412C38.0247 17.2647 37.431 17.087 36.989 16.879C36.547 16.6623 36.2177 16.3807 36.001 16.034C35.7843 15.6787 35.676 15.215 35.676 14.643C35.676 14.149 35.8147 13.707 36.092 13.317C36.3693 12.927 36.7637 12.6193 37.275 12.394C37.7863 12.1687 38.3757 12.056 39.043 12.056C39.7363 12.056 40.3603 12.173 40.915 12.407C41.4783 12.6323 41.9897 12.9877 42.449 13.473L41.292 14.708C40.9887 14.4133 40.6377 14.1923 40.239 14.045C39.8403 13.8977 39.4373 13.824 39.03 13.824C38.588 13.824 38.2543 13.8933 38.029 14.032C37.8037 14.1707 37.691 14.3657 37.691 14.617C37.691 14.8163 37.7473 14.9767 37.86 15.098C37.9727 15.2193 38.1547 15.3233 38.406 15.41C38.6573 15.488 39.0343 15.5833 39.537 15.696C40.5943 15.9213 41.3657 16.2507 41.851 16.684C42.3363 17.1173 42.579 17.7067 42.579 18.452C42.579 19.2753 42.2757 19.934 41.669 20.428C41.071 20.9133 40.226 21.156 39.134 21.156ZM44.1895 12.212H50.2995V14.006H46.1525V15.657H49.7795V17.425H46.1525V19.18H50.4165V21H44.1895V12.212ZM52.0352 12.212H53.8682L56.7282 17.503L59.6792 12.212H61.4862V21H59.5102V15.761L57.5212 19.414H55.9092L53.9592 15.787V21H52.0352V12.212ZM66.0084 12.212H68.1274L71.4294 21H69.3104L68.6734 19.115H65.3584L64.7214 21H62.6804L66.0084 12.212ZM68.1144 17.425L67.0224 14.214L65.9174 17.425H68.1144ZM72.627 12.212H74.304L78.178 17.542V12.212H80.167V21H78.49L74.616 15.657V21H72.627V12.212ZM84.6959 12.212H86.8149L90.1169 21H87.9979L87.3609 19.115H84.0459L83.4089 21H81.3679L84.6959 12.212ZM86.8019 17.425L85.7099 14.214L84.6049 17.425H86.8019ZM94.628 12.212H96.305L100.179 17.542V12.212H102.168V21H100.491L96.617 15.657V21H94.628V12.212ZM104.175 12.212H110.285V14.006H106.138V15.657H109.765V17.425H106.138V19.18H110.402V21H104.175V12.212ZM114.439 16.424L111.436 12.212H113.88L115.752 14.942L117.52 12.212H119.873L116.922 16.424L120.12 21H117.702L115.609 17.88L113.581 21H111.228L114.439 16.424ZM123.368 14.136H120.755V12.212H127.983V14.136H125.37V21H123.368V14.136Z" fill="black"/>
<circle cx="140" cy="16" r="3" fill="black"/>
<path d="M155.134 21.156C154.337 21.156 153.622 21.039 152.989 20.805C152.365 20.5623 151.793 20.2113 151.273 19.752L152.326 18.335C152.707 18.6557 153.141 18.907 153.626 19.089C154.111 19.271 154.623 19.362 155.16 19.362C155.611 19.362 155.953 19.2927 156.187 19.154C156.421 19.0067 156.538 18.7943 156.538 18.517C156.538 18.205 156.408 17.9797 156.148 17.841C155.888 17.7023 155.429 17.5593 154.77 17.412C154.025 17.2647 153.431 17.087 152.989 16.879C152.547 16.6623 152.218 16.3807 152.001 16.034C151.784 15.6787 151.676 15.215 151.676 14.643C151.676 14.149 151.815 13.707 152.092 13.317C152.369 12.927 152.764 12.6193 153.275 12.394C153.786 12.1687 154.376 12.056 155.043 12.056C155.736 12.056 156.36 12.173 156.915 12.407C157.478 12.6323 157.99 12.9877 158.449 13.473L157.292 14.708C156.989 14.4133 156.638 14.1923 156.239 14.045C155.84 13.8977 155.437 13.824 155.03 13.824C154.588 13.824 154.254 13.8933 154.029 14.032C153.804 14.1707 153.691 14.3657 153.691 14.617C153.691 14.8163 153.747 14.9767 153.86 15.098C153.973 15.2193 154.155 15.3233 154.406 15.41C154.657 15.488 155.034 15.5833 155.537 15.696C156.594 15.9213 157.366 16.2507 157.851 16.684C158.336 17.1173 158.579 17.7067 158.579 18.452C158.579 19.2753 158.276 19.934 157.669 20.428C157.071 20.9133 156.226 21.156 155.134 21.156ZM160.189 12.212H166.299V14.006H162.152V15.657H165.779V17.425H162.152V19.18H166.416V21H160.189V12.212ZM168.035 12.212H169.868L172.728 17.503L175.679 12.212H177.486V21H175.51V15.761L173.521 19.414H171.909L169.959 15.787V21H168.035V12.212ZM182.008 12.212H184.127L187.429 21H185.31L184.673 19.115H181.358L180.721 21H178.68L182.008 12.212ZM184.114 17.425L183.022 14.214L181.917 17.425H184.114ZM188.627 12.212H190.304L194.178 17.542V12.212H196.167V21H194.49L190.616 15.657V21H188.627V12.212ZM200.696 12.212H202.815L206.117 21H203.998L203.361 19.115H200.046L199.409 21H197.368L200.696 12.212ZM202.802 17.425L201.71 14.214L200.605 17.425H202.802ZM210.628 12.212H212.305L216.179 17.542V12.212H218.168V21H216.491L212.617 15.657V21H210.628V12.212ZM220.175 12.212H226.285V14.006H222.138V15.657H225.765V17.425H222.138V19.18H226.402V21H220.175V12.212ZM230.439 16.424L227.436 12.212H229.88L231.752 14.942L233.52 12.212H235.873L232.922 16.424L236.12 21H233.702L231.609 17.88L229.581 21H227.228L230.439 16.424ZM239.368 14.136H236.755V12.212H243.983V14.136H241.37V21H239.368V14.136Z" fill="black"/>
<circle cx="256" cy="16" r="3" fill="black"/>
<path d="M271.134 21.156C270.337 21.156 269.622 21.039 268.989 20.805C268.365 20.5623 267.793 20.2113 267.273 19.752L268.326 18.335C268.707 18.6557 269.141 18.907 269.626 19.089C270.111 19.271 270.623 19.362 271.16 19.362C271.611 19.362 271.953 19.2927 272.187 19.154C272.421 19.0067 272.538 18.7943 272.538 18.517C272.538 18.205 272.408 17.9797 272.148 17.841C271.888 17.7023 271.429 17.5593 270.77 17.412C270.025 17.2647 269.431 17.087 268.989 16.879C268.547 16.6623 268.218 16.3807 268.001 16.034C267.784 15.6787 267.676 15.215 267.676 14.643C267.676 14.149 267.815 13.707 268.092 13.317C268.369 12.927 268.764 12.6193 269.275 12.394C269.786 12.1687 270.376 12.056 271.043 12.056C271.736 12.056 272.36 12.173 272.915 12.407C273.478 12.6323 273.99 12.9877 274.449 13.473L273.292 14.708C272.989 14.4133 272.638 14.1923 272.239 14.045C271.84 13.8977 271.437 13.824 271.03 13.824C270.588 13.824 270.254 13.8933 270.029 14.032C269.804 14.1707 269.691 14.3657 269.691 14.617C269.691 14.8163 269.747 14.9767 269.86 15.098C269.973 15.2193 270.155 15.3233 270.406 15.41C270.657 15.488 271.034 15.5833 271.537 15.696C272.594 15.9213 273.366 16.2507 273.851 16.684C274.336 17.1173 274.579 17.7067 274.579 18.452C274.579 19.2753 274.276 19.934 273.669 20.428C273.071 20.9133 272.226 21.156 271.134 21.156ZM276.189 12.212H282.299V14.006H278.152V15.657H281.779V17.425H278.152V19.18H282.416V21H276.189V12.212ZM284.035 12.212H285.868L288.728 17.503L291.679 12.212H293.486V21H291.51V15.761L289.521 19.414H287.909L285.959 15.787V21H284.035V12.212ZM298.008 12.212H300.127L303.429 21H301.31L300.673 19.115H297.358L296.721 21H294.68L298.008 12.212ZM300.114 17.425L299.022 14.214L297.917 17.425H300.114ZM304.627 12.212H306.304L310.178 17.542V12.212H312.167V21H310.49L306.616 15.657V21H304.627V12.212ZM316.696 12.212H318.815L322.117 21H319.998L319.361 19.115H316.046L315.409 21H313.368L316.696 12.212ZM318.802 17.425L317.71 14.214L316.605 17.425H318.802ZM326.628 12.212H328.305L332.179 17.542V12.212H334.168V21H332.491L328.617 15.657V21H326.628V12.212ZM336.175 12.212H342.285V14.006H338.138V15.657H341.765V17.425H338.138V19.18H342.402V21H336.175V12.212ZM346.439 16.424L343.436 12.212H345.88L347.752 14.942L349.52 12.212H351.873L348.922 16.424L352.12 21H349.702L347.609 17.88L345.581 21H343.228L346.439 16.424ZM355.368 14.136H352.755V12.212H359.983V14.136H357.37V21H355.368V14.136Z" fill="black"/>
<circle cx="372" cy="16" r="3" fill="black"/>
<path d="M387.134 21.156C386.337 21.156 385.622 21.039 384.989 20.805C384.365 20.5623 383.793 20.2113 383.273 19.752L384.326 18.335C384.707 18.6557 385.141 18.907 385.626 19.089C386.111 19.271 386.623 19.362 387.16 19.362C387.611 19.362 387.953 19.2927 388.187 19.154C388.421 19.0067 388.538 18.7943 388.538 18.517C388.538 18.205 388.408 17.9797 388.148 17.841C387.888 17.7023 387.429 17.5593 386.77 17.412C386.025 17.2647 385.431 17.087 384.989 16.879C384.547 16.6623 384.218 16.3807 384.001 16.034C383.784 15.6787 383.676 15.215 383.676 14.643C383.676 14.149 383.815 13.707 384.092 13.317C384.369 12.927 384.764 12.6193 385.275 12.394C385.786 12.1687 386.376 12.056 387.043 12.056C387.736 12.056 388.36 12.173 388.915 12.407C389.478 12.6323 389.99 12.9877 390.449 13.473L389.292 14.708C388.989 14.4133 388.638 14.1923 388.239 14.045C387.84 13.8977 387.437 13.824 387.03 13.824C386.588 13.824 386.254 13.8933 386.029 14.032C385.804 14.1707 385.691 14.3657 385.691 14.617C385.691 14.8163 385.747 14.9767 385.86 15.098C385.973 15.2193 386.155 15.3233 386.406 15.41C386.657 15.488 387.034 15.5833 387.537 15.696C388.594 15.9213 389.366 16.2507 389.851 16.684C390.336 17.1173 390.579 17.7067 390.579 18.452C390.579 19.2753 390.276 19.934 389.669 20.428C389.071 20.9133 388.226 21.156 387.134 21.156ZM392.189 12.212H398.299V14.006H394.152V15.657H397.779V17.425H394.152V19.18H398.416V21H392.189V12.212ZM400.035 12.212H401.868L404.728 17.503L407.679 12.212H409.486V21H407.51V15.761L405.521 19.414H403.909L401.959 15.787V21H400.035V12.212ZM414.008 12.212H416.127L419.429 21H417.31L416.673 19.115H413.358L412.721 21H410.68L414.008 12.212ZM416.114 17.425L415.022 14.214L413.917 17.425H416.114ZM420.627 12.212H422.304L426.178 17.542V12.212H428.167V21H426.49L422.616 15.657V21H420.627V12.212ZM432.696 12.212H434.815L438.117 21H435.998L435.361 19.115H432.046L431.409 21H429.368L432.696 12.212ZM434.802 17.425L433.71 14.214L432.605 17.425H434.802ZM442.628 12.212H444.305L448.179 17.542V12.212H450.168V21H448.491L444.617 15.657V21H442.628V12.212ZM452.175 12.212H458.285V14.006H454.138V15.657H457.765V17.425H454.138V19.18H458.402V21H452.175V12.212ZM462.439 16.424L459.436 12.212H461.88L463.752 14.942L465.52 12.212H467.873L464.922 16.424L468.12 21H465.702L463.609 17.88L461.581 21H459.228L462.439 16.424ZM471.368 14.136H468.755V12.212H475.983V14.136H473.37V21H471.368V14.136Z" fill="black"/>
<circle cx="488" cy="16" r="3" fill="black"/>
<path d="M503.134 21.156C502.337 21.156 501.622 21.039 500.989 20.805C500.365 20.5623 499.793 20.2113 499.273 19.752L500.326 18.335C500.707 18.6557 501.141 18.907 501.626 19.089C502.111 19.271 502.623 19.362 503.16 19.362C503.611 19.362 503.953 19.2927 504.187 19.154C504.421 19.0067 504.538 18.7943 504.538 18.517C504.538 18.205 504.408 17.9797 504.148 17.841C503.888 17.7023 503.429 17.5593 502.77 17.412C502.025 17.2647 501.431 17.087 500.989 16.879C500.547 16.6623 500.218 16.3807 500.001 16.034C499.784 15.6787 499.676 15.215 499.676 14.643C499.676 14.149 499.815 13.707 500.092 13.317C500.369 12.927 500.764 12.6193 501.275 12.394C501.786 12.1687 502.376 12.056 503.043 12.056C503.736 12.056 504.36 12.173 504.915 12.407C505.478 12.6323 505.99 12.9877 506.449 13.473L505.292 14.708C504.989 14.4133 504.638 14.1923 504.239 14.045C503.84 13.8977 503.437 13.824 503.03 13.824C502.588 13.824 502.254 13.8933 502.029 14.032C501.804 14.1707 501.691 14.3657 501.691 14.617C501.691 14.8163 501.747 14.9767 501.86 15.098C501.973 15.2193 502.155 15.3233 502.406 15.41C502.657 15.488 503.034 15.5833 503.537 15.696C504.594 15.9213 505.366 16.2507 505.851 16.684C506.336 17.1173 506.579 17.7067 506.579 18.452C506.579 19.2753 506.276 19.934 505.669 20.428C505.071 20.9133 504.226 21.156 503.134 21.156ZM508.189 12.212H514.299V14.006H510.152V15.657H513.779V17.425H510.152V19.18H514.416V21H508.189V12.212ZM516.035 12.212H517.868L520.728 17.503L523.679 12.212H525.486V21H523.51V15.761L521.521 19.414H519.909L517.959 15.787V21H516.035V12.212ZM530.008 12.212H532.127L535.429 21H533.31L532.673 19.115H529.358L528.721 21H526.68L530.008 12.212ZM532.114 17.425L531.022 14.214L529.917 17.425H532.114ZM536.627 12.212H538.304L542.178 17.542V12.212H544.167V21H542.49L538.616 15.657V21H536.627V12.212ZM548.696 12.212H550.815L554.117 21H551.998L551.361 19.115H548.046L547.409 21H545.368L548.696 12.212ZM550.802 17.425L549.71 14.214L548.605 17.425H550.802ZM558.628 12.212H560.305L564.179 17.542V12.212H566.168V21H564.491L560.617 15.657V21H558.628V12.212ZM568.175 12.212H574.285V14.006H570.138V15.657H573.765V17.425H570.138V19.18H574.402V21H568.175V12.212ZM578.439 16.424L575.436 12.212H577.88L579.752 14.942L581.52 12.212H583.873L580.922 16.424L584.12 21H581.702L579.609 17.88L577.581 21H575.228L578.439 16.424ZM587.368 14.136H584.755V12.212H591.983V14.136H589.37V21H587.368V14.136Z" fill="black"/>
<circle cx="604" cy="16" r="3" fill="black"/>
<path d="M619.134 21.156C618.337 21.156 617.622 21.039 616.989 20.805C616.365 20.5623 615.793 20.2113 615.273 19.752L616.326 18.335C616.707 18.6557 617.141 18.907 617.626 19.089C618.111 19.271 618.623 19.362 619.16 19.362C619.611 19.362 619.953 19.2927 620.187 19.154C620.421 19.0067 620.538 18.7943 620.538 18.517C620.538 18.205 620.408 17.9797 620.148 17.841C619.888 17.7023 619.429 17.5593 618.77 17.412C618.025 17.2647 617.431 17.087 616.989 16.879C616.547 16.6623 616.218 16.3807 616.001 16.034C615.784 15.6787 615.676 15.215 615.676 14.643C615.676 14.149 615.815 13.707 616.092 13.317C616.369 12.927 616.764 12.6193 617.275 12.394C617.786 12.1687 618.376 12.056 619.043 12.056C619.736 12.056 620.36 12.173 620.915 12.407C621.478 12.6323 621.99 12.9877 622.449 13.473L621.292 14.708C620.989 14.4133 620.638 14.1923 620.239 14.045C619.84 13.8977 619.437 13.824 619.03 13.824C618.588 13.824 618.254 13.8933 618.029 14.032C617.804 14.1707 617.691 14.3657 617.691 14.617C617.691 14.8163 617.747 14.9767 617.86 15.098C617.973 15.2193 618.155 15.3233 618.406 15.41C618.657 15.488 619.034 15.5833 619.537 15.696C620.594 15.9213 621.366 16.2507 621.851 16.684C622.336 17.1173 622.579 17.7067 622.579 18.452C622.579 19.2753 622.276 19.934 621.669 20.428C621.071 20.9133 620.226 21.156 619.134 21.156ZM624.189 12.212H630.299V14.006H626.152V15.657H629.779V17.425H626.152V19.18H630.416V21H624.189V12.212ZM632.035 12.212H633.868L636.728 17.503L639.679 12.212H641.486V21H639.51V15.761L637.521 19.414H635.909L633.959 15.787V21H632.035V12.212ZM646.008 12.212H648.127L651.429 21H649.31L648.673 19.115H645.358L644.721 21H642.68L646.008 12.212ZM648.114 17.425L647.022 14.214L645.917 17.425H648.114ZM652.627 12.212H654.304L658.178 17.542V12.212H660.167V21H658.49L654.616 15.657V21H652.627V12.212ZM664.696 12.212H666.815L670.117 21H667.998L667.361 19.115H664.046L663.409 21H661.368L664.696 12.212ZM666.802 17.425L665.71 14.214L664.605 17.425H666.802ZM674.628 12.212H676.305L680.179 17.542V12.212H682.168V21H680.491L676.617 15.657V21H674.628V12.212ZM684.175 12.212H690.285V14.006H686.138V15.657H689.765V17.425H686.138V19.18H690.402V21H684.175V12.212ZM694.439 16.424L691.436 12.212H693.88L695.752 14.942L697.52 12.212H699.873L696.922 16.424L700.12 21H697.702L695.609 17.88L693.581 21H691.228L694.439 16.424ZM703.368 14.136H700.755V12.212H707.983V14.136H705.37V21H703.368V14.136Z" fill="black"/>
<circle cx="720" cy="16" r="3" fill="black"/>
<path d="M735.134 21.156C734.337 21.156 733.622 21.039 732.989 20.805C732.365 20.5623 731.793 20.2113 731.273 19.752L732.326 18.335C732.707 18.6557 733.141 18.907 733.626 19.089C734.111 19.271 734.623 19.362 735.16 19.362C735.611 19.362 735.953 19.2927 736.187 19.154C736.421 19.0067 736.538 18.7943 736.538 18.517C736.538 18.205 736.408 17.9797 736.148 17.841C735.888 17.7023 735.429 17.5593 734.77 17.412C734.025 17.2647 733.431 17.087 732.989 16.879C732.547 16.6623 732.218 16.3807 732.001 16.034C731.784 15.6787 731.676 15.215 731.676 14.643C731.676 14.149 731.815 13.707 732.092 13.317C732.369 12.927 732.764 12.6193 733.275 12.394C733.786 12.1687 734.376 12.056 735.043 12.056C735.736 12.056 736.36 12.173 736.915 12.407C737.478 12.6323 737.99 12.9877 738.449 13.473L737.292 14.708C736.989 14.4133 736.638 14.1923 736.239 14.045C735.84 13.8977 735.437 13.824 735.03 13.824C734.588 13.824 734.254 13.8933 734.029 14.032C733.804 14.1707 733.691 14.3657 733.691 14.617C733.691 14.8163 733.747 14.9767 733.86 15.098C733.973 15.2193 734.155 15.3233 734.406 15.41C734.657 15.488 735.034 15.5833 735.537 15.696C736.594 15.9213 737.366 16.2507 737.851 16.684C738.336 17.1173 738.579 17.7067 738.579 18.452C738.579 19.2753 738.276 19.934 737.669 20.428C737.071 20.9133 736.226 21.156 735.134 21.156ZM740.189 12.212H746.299V14.006H742.152V15.657H745.779V17.425H742.152V19.18H746.416V21H740.189V12.212ZM748.035 12.212H749.868L752.728 17.503L755.679 12.212H757.486V21H755.51V15.761L753.521 19.414H751.909L749.959 15.787V21H748.035V12.212ZM762.008 12.212H764.127L767.429 21H765.31L764.673 19.115H761.358L760.721 21H758.68L762.008 12.212ZM764.114 17.425L763.022 14.214L761.917 17.425H764.114ZM768.627 12.212H770.304L774.178 17.542V12.212H776.167V21H774.49L770.616 15.657V21H768.627V12.212ZM780.696 12.212H782.815L786.117 21H783.998L783.361 19.115H780.046L779.409 21H777.368L780.696 12.212ZM782.802 17.425L781.71 14.214L780.605 17.425H782.802ZM790.628 12.212H792.305L796.179 17.542V12.212H798.168V21H796.491L792.617 15.657V21H790.628V12.212ZM800.175 12.212H806.285V14.006H802.138V15.657H805.765V17.425H802.138V19.18H806.402V21H800.175V12.212ZM810.439 16.424L807.436 12.212H809.88L811.752 14.942L813.52 12.212H815.873L812.922 16.424L816.12 21H813.702L811.609 17.88L809.581 21H807.228L810.439 16.424ZM819.368 14.136H816.755V12.212H823.983V14.136H821.37V21H819.368V14.136Z" fill="black"/>
<circle cx="836" cy="16" r="3" fill="black"/>
<path d="M851.134 21.156C850.337 21.156 849.622 21.039 848.989 20.805C848.365 20.5623 847.793 20.2113 847.273 19.752L848.326 18.335C848.707 18.6557 849.141 18.907 849.626 19.089C850.111 19.271 850.623 19.362 851.16 19.362C851.611 19.362 851.953 19.2927 852.187 19.154C852.421 19.0067 852.538 18.7943 852.538 18.517C852.538 18.205 852.408 17.9797 852.148 17.841C851.888 17.7023 851.429 17.5593 850.77 17.412C850.025 17.2647 849.431 17.087 848.989 16.879C848.547 16.6623 848.218 16.3807 848.001 16.034C847.784 15.6787 847.676 15.215 847.676 14.643C847.676 14.149 847.815 13.707 848.092 13.317C848.369 12.927 848.764 12.6193 849.275 12.394C849.786 12.1687 850.376 12.056 851.043 12.056C851.736 12.056 852.36 12.173 852.915 12.407C853.478 12.6323 853.99 12.9877 854.449 13.473L853.292 14.708C852.989 14.4133 852.638 14.1923 852.239 14.045C851.84 13.8977 851.437 13.824 851.03 13.824C850.588 13.824 850.254 13.8933 850.029 14.032C849.804 14.1707 849.691 14.3657 849.691 14.617C849.691 14.8163 849.747 14.9767 849.86 15.098C849.973 15.2193 850.155 15.3233 850.406 15.41C850.657 15.488 851.034 15.5833 851.537 15.696C852.594 15.9213 853.366 16.2507 853.851 16.684C854.336 17.1173 854.579 17.7067 854.579 18.452C854.579 19.2753 854.276 19.934 853.669 20.428C853.071 20.9133 852.226 21.156 851.134 21.156ZM856.189 12.212H862.299V14.006H858.152V15.657H861.779V17.425H858.152V19.18H862.416V21H856.189V12.212ZM864.035 12.212H865.868L868.728 17.503L871.679 12.212H873.486V21H871.51V15.761L869.521 19.414H867.909L865.959 15.787V21H864.035V12.212ZM878.008 12.212H880.127L883.429 21H881.31L880.673 19.115H877.358L876.721 21H874.68L878.008 12.212ZM880.114 17.425L879.022 14.214L877.917 17.425H880.114ZM884.627 12.212H886.304L890.178 17.542V12.212H892.167V21H890.49L886.616 15.657V21H884.627V12.212ZM896.696 12.212H898.815L902.117 21H899.998L899.361 19.115H896.046L895.409 21H893.368L896.696 12.212ZM898.802 17.425L897.71 14.214L896.605 17.425H898.802ZM906.628 12.212H908.305L912.179 17.542V12.212H914.168V21H912.491L908.617 15.657V21H906.628V12.212ZM916.175 12.212H922.285V14.006H918.138V15.657H921.765V17.425H918.138V19.18H922.402V21H916.175V12.212ZM926.439 16.424L923.436 12.212H925.88L927.752 14.942L929.52 12.212H931.873L928.922 16.424L932.12 21H929.702L927.609 17.88L925.581 21H923.228L926.439 16.424ZM935.368 14.136H932.755V12.212H939.983V14.136H937.37V21H935.368V14.136Z" fill="black"/>
<circle cx="952" cy="16" r="3" fill="black"/>
<path d="M967.134 21.156C966.337 21.156 965.622 21.039 964.989 20.805C964.365 20.5623 963.793 20.2113 963.273 19.752L964.326 18.335C964.707 18.6557 965.141 18.907 965.626 19.089C966.111 19.271 966.623 19.362 967.16 19.362C967.611 19.362 967.953 19.2927 968.187 19.154C968.421 19.0067 968.538 18.7943 968.538 18.517C968.538 18.205 968.408 17.9797 968.148 17.841C967.888 17.7023 967.429 17.5593 966.77 17.412C966.025 17.2647 965.431 17.087 964.989 16.879C964.547 16.6623 964.218 16.3807 964.001 16.034C963.784 15.6787 963.676 15.215 963.676 14.643C963.676 14.149 963.815 13.707 964.092 13.317C964.369 12.927 964.764 12.6193 965.275 12.394C965.786 12.1687 966.376 12.056 967.043 12.056C967.736 12.056 968.36 12.173 968.915 12.407C969.478 12.6323 969.99 12.9877 970.449 13.473L969.292 14.708C968.989 14.4133 968.638 14.1923 968.239 14.045C967.84 13.8977 967.437 13.824 967.03 13.824C966.588 13.824 966.254 13.8933 966.029 14.032C965.804 14.1707 965.691 14.3657 965.691 14.617C965.691 14.8163 965.747 14.9767 965.86 15.098C965.973 15.2193 966.155 15.3233 966.406 15.41C966.657 15.488 967.034 15.5833 967.537 15.696C968.594 15.9213 969.366 16.2507 969.851 16.684C970.336 17.1173 970.579 17.7067 970.579 18.452C970.579 19.2753 970.276 19.934 969.669 20.428C969.071 20.9133 968.226 21.156 967.134 21.156ZM972.189 12.212H978.299V14.006H974.152V15.657H977.779V17.425H974.152V19.18H978.416V21H972.189V12.212ZM980.035 12.212H981.868L984.728 17.503L987.679 12.212H989.486V21H987.51V15.761L985.521 19.414H983.909L981.959 15.787V21H980.035V12.212ZM994.008 12.212H996.127L999.429 21H997.31L996.673 19.115H993.358L992.721 21H990.68L994.008 12.212ZM996.114 17.425L995.022 14.214L993.917 17.425H996.114ZM1000.63 12.212H1002.3L1006.18 17.542V12.212H1008.17V21H1006.49L1002.62 15.657V21H1000.63V12.212ZM1012.7 12.212H1014.81L1018.12 21H1016L1015.36 19.115H1012.05L1011.41 21H1009.37L1012.7 12.212ZM1014.8 17.425L1013.71 14.214L1012.6 17.425H1014.8ZM1022.63 12.212H1024.3L1028.18 17.542V12.212H1030.17V21H1028.49L1024.62 15.657V21H1022.63V12.212ZM1032.17 12.212H1038.28V14.006H1034.14V15.657H1037.76V17.425H1034.14V19.18H1038.4V21H1032.17V12.212ZM1042.44 16.424L1039.44 12.212H1041.88L1043.75 14.942L1045.52 12.212H1047.87L1044.92 16.424L1048.12 21H1045.7L1043.61 17.88L1041.58 21H1039.23L1042.44 16.424ZM1051.37 14.136H1048.76V12.212H1055.98V14.136H1053.37V21H1051.37V14.136Z" fill="black"/>
<circle cx="1068" cy="16" r="3" fill="black"/>
<path d="M1083.13 21.156C1082.34 21.156 1081.62 21.039 1080.99 20.805C1080.37 20.5623 1079.79 20.2113 1079.27 19.752L1080.33 18.335C1080.71 18.6557 1081.14 18.907 1081.63 19.089C1082.11 19.271 1082.62 19.362 1083.16 19.362C1083.61 19.362 1083.95 19.2927 1084.19 19.154C1084.42 19.0067 1084.54 18.7943 1084.54 18.517C1084.54 18.205 1084.41 17.9797 1084.15 17.841C1083.89 17.7023 1083.43 17.5593 1082.77 17.412C1082.02 17.2647 1081.43 17.087 1080.99 16.879C1080.55 16.6623 1080.22 16.3807 1080 16.034C1079.78 15.6787 1079.68 15.215 1079.68 14.643C1079.68 14.149 1079.81 13.707 1080.09 13.317C1080.37 12.927 1080.76 12.6193 1081.28 12.394C1081.79 12.1687 1082.38 12.056 1083.04 12.056C1083.74 12.056 1084.36 12.173 1084.92 12.407C1085.48 12.6323 1085.99 12.9877 1086.45 13.473L1085.29 14.708C1084.99 14.4133 1084.64 14.1923 1084.24 14.045C1083.84 13.8977 1083.44 13.824 1083.03 13.824C1082.59 13.824 1082.25 13.8933 1082.03 14.032C1081.8 14.1707 1081.69 14.3657 1081.69 14.617C1081.69 14.8163 1081.75 14.9767 1081.86 15.098C1081.97 15.2193 1082.15 15.3233 1082.41 15.41C1082.66 15.488 1083.03 15.5833 1083.54 15.696C1084.59 15.9213 1085.37 16.2507 1085.85 16.684C1086.34 17.1173 1086.58 17.7067 1086.58 18.452C1086.58 19.2753 1086.28 19.934 1085.67 20.428C1085.07 20.9133 1084.23 21.156 1083.13 21.156ZM1088.19 12.212H1094.3V14.006H1090.15V15.657H1093.78V17.425H1090.15V19.18H1094.42V21H1088.19V12.212ZM1096.04 12.212H1097.87L1100.73 17.503L1103.68 12.212H1105.49V21H1103.51V15.761L1101.52 19.414H1099.91L1097.96 15.787V21H1096.04V12.212ZM1110.01 12.212H1112.13L1115.43 21H1113.31L1112.67 19.115H1109.36L1108.72 21H1106.68L1110.01 12.212ZM1112.11 17.425L1111.02 14.214L1109.92 17.425H1112.11ZM1116.63 12.212H1118.3L1122.18 17.542V12.212H1124.17V21H1122.49L1118.62 15.657V21H1116.63V12.212ZM1128.7 12.212H1130.81L1134.12 21H1132L1131.36 19.115H1128.05L1127.41 21H1125.37L1128.7 12.212ZM1130.8 17.425L1129.71 14.214L1128.6 17.425H1130.8ZM1138.63 12.212H1140.3L1144.18 17.542V12.212H1146.17V21H1144.49L1140.62 15.657V21H1138.63V12.212ZM1148.17 12.212H1154.28V14.006H1150.14V15.657H1153.76V17.425H1150.14V19.18H1154.4V21H1148.17V12.212ZM1158.44 16.424L1155.44 12.212H1157.88L1159.75 14.942L1161.52 12.212H1163.87L1160.92 16.424L1164.12 21H1161.7L1159.61 17.88L1157.58 21H1155.23L1158.44 16.424ZM1167.37 14.136H1164.76V12.212H1171.98V14.136H1169.37V21H1167.37V14.136Z" fill="black"/>
<circle cx="1184" cy="16" r="3" fill="black"/>
<path d="M1199.13 21.156C1198.34 21.156 1197.62 21.039 1196.99 20.805C1196.37 20.5623 1195.79 20.2113 1195.27 19.752L1196.33 18.335C1196.71 18.6557 1197.14 18.907 1197.63 19.089C1198.11 19.271 1198.62 19.362 1199.16 19.362C1199.61 19.362 1199.95 19.2927 1200.19 19.154C1200.42 19.0067 1200.54 18.7943 1200.54 18.517C1200.54 18.205 1200.41 17.9797 1200.15 17.841C1199.89 17.7023 1199.43 17.5593 1198.77 17.412C1198.02 17.2647 1197.43 17.087 1196.99 16.879C1196.55 16.6623 1196.22 16.3807 1196 16.034C1195.78 15.6787 1195.68 15.215 1195.68 14.643C1195.68 14.149 1195.81 13.707 1196.09 13.317C1196.37 12.927 1196.76 12.6193 1197.28 12.394C1197.79 12.1687 1198.38 12.056 1199.04 12.056C1199.74 12.056 1200.36 12.173 1200.92 12.407C1201.48 12.6323 1201.99 12.9877 1202.45 13.473L1201.29 14.708C1200.99 14.4133 1200.64 14.1923 1200.24 14.045C1199.84 13.8977 1199.44 13.824 1199.03 13.824C1198.59 13.824 1198.25 13.8933 1198.03 14.032C1197.8 14.1707 1197.69 14.3657 1197.69 14.617C1197.69 14.8163 1197.75 14.9767 1197.86 15.098C1197.97 15.2193 1198.15 15.3233 1198.41 15.41C1198.66 15.488 1199.03 15.5833 1199.54 15.696C1200.59 15.9213 1201.37 16.2507 1201.85 16.684C1202.34 17.1173 1202.58 17.7067 1202.58 18.452C1202.58 19.2753 1202.28 19.934 1201.67 20.428C1201.07 20.9133 1200.23 21.156 1199.13 21.156ZM1204.19 12.212H1210.3V14.006H1206.15V15.657H1209.78V17.425H1206.15V19.18H1210.42V21H1204.19V12.212ZM1212.04 12.212H1213.87L1216.73 17.503L1219.68 12.212H1221.49V21H1219.51V15.761L1217.52 19.414H1215.91L1213.96 15.787V21H1212.04V12.212ZM1226.01 12.212H1228.13L1231.43 21H1229.31L1228.67 19.115H1225.36L1224.72 21H1222.68L1226.01 12.212ZM1228.11 17.425L1227.02 14.214L1225.92 17.425H1228.11ZM1232.63 12.212H1234.3L1238.18 17.542V12.212H1240.17V21H1238.49L1234.62 15.657V21H1232.63V12.212ZM1244.7 12.212H1246.81L1250.12 21H1248L1247.36 19.115H1244.05L1243.41 21H1241.37L1244.7 12.212ZM1246.8 17.425L1245.71 14.214L1244.6 17.425H1246.8ZM1254.63 12.212H1256.3L1260.18 17.542V12.212H1262.17V21H1260.49L1256.62 15.657V21H1254.63V12.212ZM1264.17 12.212H1270.28V14.006H1266.14V15.657H1269.76V17.425H1266.14V19.18H1270.4V21H1264.17V12.212ZM1274.44 16.424L1271.44 12.212H1273.88L1275.75 14.942L1277.52 12.212H1279.87L1276.92 16.424L1280.12 21H1277.7L1275.61 17.88L1273.58 21H1271.23L1274.44 16.424ZM1283.37 14.136H1280.76V12.212H1287.98V14.136H1285.37V21H1283.37V14.136Z" fill="black"/>
<circle cx="1300" cy="16" r="3" fill="black"/>
<path d="M1315.13 21.156C1314.34 21.156 1313.62 21.039 1312.99 20.805C1312.37 20.5623 1311.79 20.2113 1311.27 19.752L1312.33 18.335C1312.71 18.6557 1313.14 18.907 1313.63 19.089C1314.11 19.271 1314.62 19.362 1315.16 19.362C1315.61 19.362 1315.95 19.2927 1316.19 19.154C1316.42 19.0067 1316.54 18.7943 1316.54 18.517C1316.54 18.205 1316.41 17.9797 1316.15 17.841C1315.89 17.7023 1315.43 17.5593 1314.77 17.412C1314.02 17.2647 1313.43 17.087 1312.99 16.879C1312.55 16.6623 1312.22 16.3807 1312 16.034C1311.78 15.6787 1311.68 15.215 1311.68 14.643C1311.68 14.149 1311.81 13.707 1312.09 13.317C1312.37 12.927 1312.76 12.6193 1313.28 12.394C1313.79 12.1687 1314.38 12.056 1315.04 12.056C1315.74 12.056 1316.36 12.173 1316.92 12.407C1317.48 12.6323 1317.99 12.9877 1318.45 13.473L1317.29 14.708C1316.99 14.4133 1316.64 14.1923 1316.24 14.045C1315.84 13.8977 1315.44 13.824 1315.03 13.824C1314.59 13.824 1314.25 13.8933 1314.03 14.032C1313.8 14.1707 1313.69 14.3657 1313.69 14.617C1313.69 14.8163 1313.75 14.9767 1313.86 15.098C1313.97 15.2193 1314.15 15.3233 1314.41 15.41C1314.66 15.488 1315.03 15.5833 1315.54 15.696C1316.59 15.9213 1317.37 16.2507 1317.85 16.684C1318.34 17.1173 1318.58 17.7067 1318.58 18.452C1318.58 19.2753 1318.28 19.934 1317.67 20.428C1317.07 20.9133 1316.23 21.156 1315.13 21.156ZM1320.19 12.212H1326.3V14.006H1322.15V15.657H1325.78V17.425H1322.15V19.18H1326.42V21H1320.19V12.212ZM1328.04 12.212H1329.87L1332.73 17.503L1335.68 12.212H1337.49V21H1335.51V15.761L1333.52 19.414H1331.91L1329.96 15.787V21H1328.04V12.212ZM1342.01 12.212H1344.13L1347.43 21H1345.31L1344.67 19.115H1341.36L1340.72 21H1338.68L1342.01 12.212ZM1344.11 17.425L1343.02 14.214L1341.92 17.425H1344.11ZM1348.63 12.212H1350.3L1354.18 17.542V12.212H1356.17V21H1354.49L1350.62 15.657V21H1348.63V12.212ZM1360.7 12.212H1362.81L1366.12 21H1364L1363.36 19.115H1360.05L1359.41 21H1357.37L1360.7 12.212ZM1362.8 17.425L1361.71 14.214L1360.6 17.425H1362.8ZM1370.63 12.212H1372.3L1376.18 17.542V12.212H1378.17V21H1376.49L1372.62 15.657V21H1370.63V12.212ZM1380.17 12.212H1386.28V14.006H1382.14V15.657H1385.76V17.425H1382.14V19.18H1386.4V21H1380.17V12.212ZM1390.44 16.424L1387.44 12.212H1389.88L1391.75 14.942L1393.52 12.212H1395.87L1392.92 16.424L1396.12 21H1393.7L1391.61 17.88L1389.58 21H1387.23L1390.44 16.424ZM1399.37 14.136H1396.76V12.212H1403.98V14.136H1401.37V21H1399.37V14.136Z" fill="black"/>
<circle cx="1416" cy="16" r="3" fill="black"/>
<path d="M1431.13 21.156C1430.34 21.156 1429.62 21.039 1428.99 20.805C1428.37 20.5623 1427.79 20.2113 1427.27 19.752L1428.33 18.335C1428.71 18.6557 1429.14 18.907 1429.63 19.089C1430.11 19.271 1430.62 19.362 1431.16 19.362C1431.61 19.362 1431.95 19.2927 1432.19 19.154C1432.42 19.0067 1432.54 18.7943 1432.54 18.517C1432.54 18.205 1432.41 17.9797 1432.15 17.841C1431.89 17.7023 1431.43 17.5593 1430.77 17.412C1430.02 17.2647 1429.43 17.087 1428.99 16.879C1428.55 16.6623 1428.22 16.3807 1428 16.034C1427.78 15.6787 1427.68 15.215 1427.68 14.643C1427.68 14.149 1427.81 13.707 1428.09 13.317C1428.37 12.927 1428.76 12.6193 1429.28 12.394C1429.79 12.1687 1430.38 12.056 1431.04 12.056C1431.74 12.056 1432.36 12.173 1432.92 12.407C1433.48 12.6323 1433.99 12.9877 1434.45 13.473L1433.29 14.708C1432.99 14.4133 1432.64 14.1923 1432.24 14.045C1431.84 13.8977 1431.44 13.824 1431.03 13.824C1430.59 13.824 1430.25 13.8933 1430.03 14.032C1429.8 14.1707 1429.69 14.3657 1429.69 14.617C1429.69 14.8163 1429.75 14.9767 1429.86 15.098C1429.97 15.2193 1430.15 15.3233 1430.41 15.41C1430.66 15.488 1431.03 15.5833 1431.54 15.696C1432.59 15.9213 1433.37 16.2507 1433.85 16.684C1434.34 17.1173 1434.58 17.7067 1434.58 18.452C1434.58 19.2753 1434.28 19.934 1433.67 20.428C1433.07 20.9133 1432.23 21.156 1431.13 21.156ZM1436.19 12.212H1442.3V14.006H1438.15V15.657H1441.78V17.425H1438.15V19.18H1442.42V21H1436.19V12.212ZM1444.04 12.212H1445.87L1448.73 17.503L1451.68 12.212H1453.49V21H1451.51V15.761L1449.52 19.414H1447.91L1445.96 15.787V21H1444.04V12.212ZM1458.01 12.212H1460.13L1463.43 21H1461.31L1460.67 19.115H1457.36L1456.72 21H1454.68L1458.01 12.212ZM1460.11 17.425L1459.02 14.214L1457.92 17.425H1460.11ZM1464.63 12.212H1466.3L1470.18 17.542V12.212H1472.17V21H1470.49L1466.62 15.657V21H1464.63V12.212ZM1476.7 12.212H1478.81L1482.12 21H1480L1479.36 19.115H1476.05L1475.41 21H1473.37L1476.7 12.212ZM1478.8 17.425L1477.71 14.214L1476.6 17.425H1478.8ZM1486.63 12.212H1488.3L1492.18 17.542V12.212H1494.17V21H1492.49L1488.62 15.657V21H1486.63V12.212ZM1496.17 12.212H1502.28V14.006H1498.14V15.657H1501.76V17.425H1498.14V19.18H1502.4V21H1496.17V12.212ZM1506.44 16.424L1503.44 12.212H1505.88L1507.75 14.942L1509.52 12.212H1511.87L1508.92 16.424L1512.12 21H1509.7L1507.61 17.88L1505.58 21H1503.23L1506.44 16.424ZM1515.37 14.136H1512.76V12.212H1519.98V14.136H1517.37V21H1515.37V14.136Z" fill="black"/>
</svg>
