<svg width="56" height="56" viewBox="0 0 56 56" fill="none" xmlns="http://www.w3.org/2000/svg">
<circle cx="28" cy="28" r="28" fill="#00FF5F"/>
<g clip-path="url(#clip0_117_12)">
<path d="M26.9513 16.7803L23.5537 28.1L17.8397 22.8375C17.4809 22.5052 16.9728 22.4498 16.549 22.693C16.1252 22.9387 15.9205 23.4059 16.0289 23.8828L19.2724 38.3286C19.3254 38.9523 20.1561 39.3305 22.0945 39.6267C23.6765 39.8675 25.7738 40 28.0012 40C30.2285 40 32.3259 39.8675 33.9079 39.6267C35.8463 39.3329 36.677 38.9523 36.73 38.331L39.9735 23.8852C40.0819 23.4083 39.8772 22.9411 39.4534 22.6954C39.0296 22.4522 38.5239 22.5076 38.1627 22.8399L32.4511 28.1024L29.0486 16.7803C28.909 16.3131 28.4876 16 27.9988 16C27.51 16 27.0886 16.3131 26.9489 16.7803H26.9513ZM23.6958 30.9708L24.0305 29.8533L24.8877 30.6433C25.0563 30.7998 25.1406 31.019 25.1213 31.2478C25.0996 31.4766 24.9768 31.6765 24.7818 31.7993C24.3845 32.0474 24.0473 31.833 23.951 31.7608C23.8571 31.6885 23.5609 31.4188 23.6934 30.9708H23.6958ZM27.9988 39.0366C23.7873 39.0366 21.271 38.5935 20.4499 38.2635C21.271 37.9336 23.7873 37.4904 27.9988 37.4904C32.2103 37.4904 34.7266 37.9336 35.5477 38.2635C34.7266 38.5935 32.2103 39.0366 27.9988 39.0366ZM32.3018 30.9708C32.4366 31.4188 32.1404 31.6885 32.0441 31.7608C31.9502 31.833 31.6107 32.0474 31.2134 31.7993C31.0183 31.6765 30.8955 31.4766 30.8739 31.2478C30.8522 31.019 30.9365 30.7998 31.1074 30.6433L31.9647 29.8533L32.2994 30.9708H32.3018ZM28.1264 17.0573L31.6589 28.8273L30.4573 29.9352C30.0648 30.2964 29.8698 30.807 29.9179 31.3369C29.9685 31.8667 30.255 32.334 30.7053 32.6158C31.3097 32.9939 32.0634 32.9578 32.6293 32.5266C33.1951 32.0955 33.4287 31.3754 33.224 30.6938L32.7545 29.1259L38.8105 23.5456C38.8586 23.5023 38.9116 23.495 38.967 23.5288C39.0224 23.5601 39.044 23.6082 39.0296 23.6733L35.9498 37.3941C35.4947 37.199 34.8229 37.04 33.9031 36.9004C32.321 36.6595 30.2237 36.527 27.9964 36.527C25.769 36.527 23.6717 36.6595 22.0897 36.9004C21.1698 37.04 20.5004 37.199 20.0429 37.3941L16.968 23.6733C16.9535 23.6106 16.9752 23.5625 17.0306 23.5288C17.086 23.495 17.1389 23.5023 17.1871 23.5456L23.2431 29.1259L22.7735 30.6938C22.5689 31.3754 22.8024 32.0955 23.3683 32.5266C23.9342 32.9578 24.6903 32.9939 25.2923 32.6158C25.7425 32.334 26.0315 31.8667 26.0796 31.3369C26.1278 30.807 25.9328 30.2964 25.5403 29.9352L24.3387 28.8273L27.8736 17.0573C27.9121 16.9321 28.0903 16.9321 28.1264 17.0573Z" fill="black"/>
</g>
<defs>
<clipPath id="clip0_117_12">
<rect width="24" height="24" fill="white" transform="translate(16 16)"/>
</clipPath>
</defs>
</svg>
