<svg width="80" height="54" viewBox="0 0 80 54" fill="none" xmlns="http://www.w3.org/2000/svg">
<g clip-path="url(#clip0_67_50)">
<path d="M51.5028 53.9049H49.5639C49.4917 53.9049 49.4332 53.8461 49.4332 53.7734V46.8678C49.4332 46.1034 49.8131 45.7056 50.5402 45.4981C51.7434 45.1643 52.5977 45.0847 53.3574 45.0847C55.8893 45.0847 56.8863 46.3905 56.8863 48.2219V53.7752C56.8863 53.8478 56.8278 53.9066 56.7556 53.9066H54.8477C54.7755 53.9066 54.7171 53.8478 54.7171 53.7752V48.4139C54.7171 47.6011 54.3681 46.9646 53.2457 46.9646C52.8813 46.9646 52.5014 46.9941 51.7297 47.1947C51.6729 47.2102 51.6317 47.2621 51.6317 47.3209V53.7752C51.6317 53.8478 51.5732 53.9066 51.501 53.9066" fill="black"/>
<path d="M62.0205 46.6447C60.9239 46.6447 60.2381 47.397 60.1177 48.6163C60.1109 48.6941 60.1693 48.7615 60.2467 48.7615H63.8013C63.8752 48.7615 63.9354 48.6993 63.9319 48.6249C63.8872 47.525 63.3114 46.6447 62.0205 46.6447ZM64.1709 53.8478C64.1468 53.8841 64.1055 53.9049 64.0626 53.9049H62.3368C59.7413 53.9049 57.9846 52.5196 57.9846 49.5588C57.9846 46.4389 59.884 45.0536 62.0824 45.0536C64.4871 45.0536 66.0548 46.4233 66.0548 49.3374C66.0548 49.9583 65.7694 50.261 65.1369 50.261H60.2656C60.1865 50.261 60.1263 50.3319 60.1367 50.4097C60.3034 51.6583 61.2316 52.1391 62.495 52.1391H65.0767C65.1816 52.1391 65.2434 52.2567 65.185 52.3432L64.1691 53.8478H64.1709Z" fill="black"/>
<path d="M71.7494 53.8426L70.1096 51.1862C70.058 51.1032 69.9394 51.1032 69.8878 51.1862L68.2325 53.8443C68.2085 53.8824 68.1672 53.9066 68.1225 53.9066H65.9378C65.833 53.9066 65.7711 53.789 65.8296 53.7025L68.5574 49.6003C68.5866 49.5571 68.5866 49.5 68.5574 49.455L65.888 45.3684C65.8313 45.2819 65.8932 45.166 65.9963 45.166H68.2154C68.26 45.166 68.3013 45.1885 68.3254 45.2265L69.9136 47.7706C69.9652 47.8536 70.0855 47.8518 70.1353 47.7671L71.6342 45.23C71.6583 45.1902 71.6995 45.166 71.7459 45.166H73.9478C74.0509 45.166 74.1128 45.2819 74.0578 45.3684L71.4812 49.3616C71.4537 49.4049 71.4537 49.4602 71.4812 49.5052L74.2005 53.706C74.2572 53.7925 74.1953 53.9083 74.0905 53.9083H71.8559C71.8113 53.9083 71.7683 53.8841 71.7459 53.8461" fill="black"/>
<path d="M79.9983 53.5486C80.0086 53.6161 79.9674 53.6801 79.902 53.6974C79.1182 53.8997 78.5012 54.0017 77.8978 54.0017C75.9039 54.0017 74.9706 52.9036 74.9706 50.7694V43.4902C74.9706 43.428 75.0153 43.3726 75.0772 43.3622L76.9524 43.0129C77.0332 42.9973 77.1071 43.0596 77.1071 43.1409V45.0329C77.1071 45.1055 77.1656 45.1643 77.2378 45.1643H79.6201C79.6923 45.1643 79.7508 45.2231 79.7508 45.2958V46.7208C79.7508 46.7934 79.6923 46.8522 79.6201 46.8522H77.2378C77.1656 46.8522 77.1071 46.9111 77.1071 46.9837V50.9285C77.1071 51.7085 77.3925 52.2654 78.2777 52.2654C78.6541 52.2654 79.1114 52.172 79.6116 52.0458C79.6855 52.0267 79.7594 52.0752 79.7714 52.1512L79.9983 53.5486Z" fill="black"/>
<path d="M64.4888 40.5709C64.0024 40.5709 63.509 40.4602 63.0449 40.2285C61.4361 39.4243 60.7795 37.4596 61.5787 35.8409L73.8257 11.0269C74.625 9.40815 76.5777 8.7475 78.1865 9.55169C79.7954 10.3559 80.452 12.3205 79.6527 13.9393L67.4057 38.7533C66.8368 39.9051 65.6851 40.5709 64.4888 40.5709Z" fill="black"/>
<path d="M26.7543 0.83532L66.5497 34.8586C67.8888 36.0035 68.0503 38.0217 66.9141 39.3689C65.778 40.7162 63.7703 40.8787 62.4313 39.7356L22.6376 5.71234C21.2986 4.56745 21.137 2.54919 22.2732 1.20196C23.4111 -0.145272 25.417 -0.307839 26.756 0.83532" fill="black"/>
<path d="M3.25236 49.6573C2.76592 49.6573 2.2726 49.5466 1.8085 49.3148C0.199633 48.5107 -0.456978 46.546 0.340581 44.9273L21.61 1.81753C22.4092 0.198776 24.3602 -0.46187 25.9708 0.34059C27.5796 1.14478 28.2362 3.10942 27.4387 4.72818L6.16758 47.8379C5.59863 48.9897 4.4487 49.6555 3.25064 49.6555L3.25236 49.6573Z" fill="black"/>
<path d="M78.0646 15.3903L4.57911 49.2907C2.98227 50.0275 1.09495 49.3219 0.362703 47.7152C-0.369539 46.1086 0.331764 44.2096 1.9286 43.4729L75.414 9.57417C77.0109 8.83743 78.8982 9.54304 79.6305 11.1497C80.3627 12.7563 79.6614 14.6553 78.0646 15.392" fill="black"/>
</g>
<defs>
<clipPath id="clip0_67_50">
<rect width="80" height="54" fill="white"/>
</clipPath>
</defs>
</svg>
