<svg width="72" height="48" viewBox="0 0 72 48" fill="none" xmlns="http://www.w3.org/2000/svg">
<g clip-path="url(#clip0_67_205)">
<path d="M46.3524 47.9153H44.6074C44.5425 47.9153 44.4899 47.863 44.4899 47.7985V41.6601C44.4899 40.9807 44.8318 40.6271 45.4861 40.4426C46.569 40.1459 47.3379 40.0752 48.0216 40.0752C50.3004 40.0752 51.1976 41.2358 51.1976 42.8638V47.8C51.1976 47.8646 51.145 47.9169 51.08 47.9169H49.3629C49.2979 47.9169 49.2453 47.8646 49.2453 47.8V43.0345C49.2453 42.3119 48.9313 41.7462 47.9211 41.7462C47.5931 41.7462 47.2512 41.7724 46.5566 41.9507C46.5056 41.9645 46.4685 42.0106 46.4685 42.0629V47.8C46.4685 47.8646 46.4159 47.9169 46.3509 47.9169" fill="white"/>
<path d="M55.8185 41.4621C54.8315 41.4621 54.2143 42.1309 54.106 43.2146C54.0998 43.2838 54.1524 43.3438 54.222 43.3438H57.4212C57.4877 43.3438 57.5418 43.2884 57.5387 43.2223C57.4985 42.2446 56.9803 41.4621 55.8185 41.4621ZM57.7538 47.8649C57.7321 47.8972 57.695 47.9156 57.6563 47.9156H56.1031C53.7672 47.9156 52.1862 46.6843 52.1862 44.0525C52.1862 41.2792 53.8956 40.0479 55.8742 40.0479C58.0384 40.0479 59.4493 41.2654 59.4493 43.8557C59.4493 44.4076 59.1925 44.6766 58.6232 44.6766H54.239C54.1678 44.6766 54.1137 44.7396 54.123 44.8088C54.273 45.9187 55.1084 46.3461 56.2455 46.3461H58.569C58.6634 46.3461 58.7191 46.4506 58.6665 46.5275L57.7522 47.8649H57.7538Z" fill="white"/>
<path d="M64.5744 47.86L63.0986 45.4987C63.0522 45.4249 62.9455 45.4249 62.8991 45.4987L61.4093 47.8615C61.3876 47.8953 61.3505 47.9169 61.3103 47.9169H59.3441C59.2497 47.9169 59.194 47.8123 59.2466 47.7355L61.7017 44.089C61.728 44.0506 61.728 43.9999 61.7017 43.9599L59.2992 40.3273C59.2482 40.2505 59.3039 40.1475 59.3967 40.1475H61.3938C61.4341 40.1475 61.4712 40.1674 61.4928 40.2013L62.9223 42.4626C62.9687 42.5364 63.077 42.5349 63.1218 42.4595L64.4708 40.2043C64.4925 40.169 64.5296 40.1475 64.5714 40.1475H66.553C66.6459 40.1475 66.7016 40.2505 66.6521 40.3273L64.3331 43.8769C64.3084 43.9153 64.3084 43.9645 64.3331 44.0045L66.7805 47.7385C66.8315 47.8154 66.7758 47.9184 66.6814 47.9184H64.6704C64.6301 47.9184 64.5915 47.8969 64.5714 47.8631" fill="white"/>
<path d="M71.9985 47.5987C72.0077 47.6586 71.9706 47.7155 71.9118 47.7309C71.2064 47.9107 70.651 48.0014 70.108 48.0014C68.3135 48.0014 67.4735 47.0253 67.4735 45.1283V38.6579C67.4735 38.6025 67.5137 38.5533 67.5694 38.5441L69.2572 38.2336C69.3299 38.2197 69.3964 38.2751 69.3964 38.3473V40.0291C69.3964 40.0937 69.449 40.1459 69.514 40.1459H71.6581C71.7231 40.1459 71.7757 40.1982 71.7757 40.2628V41.5295C71.7757 41.5941 71.7231 41.6463 71.6581 41.6463H69.514C69.449 41.6463 69.3964 41.6986 69.3964 41.7632V45.2697C69.3964 45.963 69.6532 46.458 70.4499 46.458C70.7887 46.458 71.2002 46.375 71.6504 46.2628C71.7169 46.2459 71.7834 46.2889 71.7943 46.3566L71.9985 47.5987Z" fill="white"/>
<path d="M58.04 36.0631C57.6022 36.0631 57.1582 35.9647 56.7405 35.7587C55.2925 35.0438 54.7016 33.2975 55.4209 31.8586L66.4432 9.80172C67.1626 8.36282 68.92 7.77558 70.3679 8.49042C71.8159 9.20525 72.4069 10.9516 71.6875 12.3905L60.6652 34.4474C60.1532 35.4712 59.1167 36.0631 58.04 36.0631Z" fill="#1E3C3C"/>
<path d="M24.0789 0.742453L59.8948 30.9853C61.0999 32.003 61.2454 33.797 60.2228 34.9946C59.2002 36.1921 57.3933 36.3366 56.1882 35.3205L20.3739 5.07758C19.1688 4.0599 19.0234 2.2659 20.0459 1.06836C21.07 -0.129185 22.8754 -0.273689 24.0805 0.742453" fill="url(#paint0_linear_67_205)"/>
<path d="M2.92689 44.14C2.48909 44.14 2.04511 44.0416 1.62742 43.8356C0.179438 43.1207 -0.411512 41.3744 0.306291 39.9355L19.4487 1.61575C20.1681 0.176853 21.9239 -0.410388 23.3735 0.302909C24.8214 1.01774 25.4124 2.76409 24.6946 4.20299L5.55059 42.5227C5.03853 43.5466 4.0036 44.1384 2.92534 44.1384L2.92689 44.14Z" fill="#00FF5F"/>
<path d="M70.258 13.6804L4.12113 43.8141C2.68397 44.469 0.985377 43.8418 0.32636 42.4137C-0.332658 40.9855 0.298514 39.2976 1.73567 38.6427L67.8726 8.51051C69.3097 7.85563 71.0083 8.48284 71.6673 9.91097C72.3264 11.3391 71.6952 13.027 70.258 13.6819" fill="url(#paint1_linear_67_205)"/>
</g>
<defs>
<linearGradient id="paint0_linear_67_205" x1="24.2188" y1="7.60164" x2="48.4317" y2="24.5995" gradientUnits="userSpaceOnUse">
<stop stop-color="#00FF5F"/>
<stop offset="1" stop-color="#1E3C3C"/>
</linearGradient>
<linearGradient id="paint1_linear_67_205" x1="29033.9" y1="-13045" x2="29073" y2="-13062.9" gradientUnits="userSpaceOnUse">
<stop stop-color="#00FF5F"/>
<stop offset="1" stop-color="#1E3C3C"/>
</linearGradient>
<clipPath id="clip0_67_205">
<rect width="72" height="48" fill="white"/>
</clipPath>
</defs>
</svg>
