<svg width="566" height="313" viewBox="0 0 566 313" fill="none" xmlns="http://www.w3.org/2000/svg">
<path d="M72.5987 280.972H41.1209C39.9488 280.972 39 280.032 39 278.872V168.499C39 156.281 45.1672 149.923 56.9714 146.606C76.5055 141.271 90.3748 140 102.709 140C143.815 140 160 160.869 160 190.142V278.899C160 280.06 159.051 281 157.879 281H126.904C125.732 281 124.783 280.06 124.783 278.899V193.21C124.783 180.219 119.118 170.046 100.895 170.046C94.9792 170.046 88.8121 170.516 76.2823 173.723C75.3614 173.972 74.6917 174.801 74.6917 175.741V278.899C74.6917 280.06 73.7428 281 72.5708 281" fill="white"/>
<path d="M240.514 165.346C222.984 165.346 212.021 177.33 210.098 196.753C209.988 197.992 210.922 199.067 212.158 199.067H268.979C270.16 199.067 271.122 198.075 271.067 196.89C270.353 179.369 261.148 165.346 240.514 165.346ZM274.886 280.091C274.502 280.669 273.842 281 273.155 281H245.569C204.081 281 176 258.933 176 211.767C176 162.067 206.361 140 241.503 140C279.942 140 305 161.819 305 208.241C305 218.131 300.439 222.952 290.328 222.952H212.461C211.197 222.952 210.235 224.082 210.4 225.322C213.065 245.213 227.902 252.872 248.097 252.872H289.366C291.042 252.872 292.031 254.745 291.097 256.123L274.859 280.091H274.886Z" fill="white"/>
<path d="M396.626 279.948L370.514 237.408C369.693 236.078 367.804 236.078 366.983 237.408L340.624 279.975C340.241 280.585 339.584 280.972 338.872 280.972H304.083C302.414 280.972 301.429 279.089 302.359 277.704L345.797 212.011C346.263 211.318 346.263 210.405 345.797 209.684L303.29 144.24C302.386 142.856 303.372 141 305.014 141H340.35C341.062 141 341.719 141.36 342.102 141.969L367.393 182.709C368.214 184.039 370.13 184.011 370.924 182.654L394.792 142.025C395.175 141.388 395.832 141 396.571 141H431.634C433.276 141 434.261 142.856 433.386 144.24L392.356 208.189C391.918 208.881 391.918 209.768 392.356 210.488L435.657 277.76C436.561 279.144 435.575 281 433.906 281H398.323C397.611 281 396.927 280.612 396.571 280.003" fill="white"/>
<path d="M528.975 274.786C529.141 275.86 528.476 276.878 527.424 277.154C514.801 280.375 504.862 282 495.145 282C463.032 282 448 264.515 448 230.536V114.638C448 113.647 448.72 112.766 449.716 112.6L479.919 107.038C481.22 106.79 482.411 107.782 482.411 109.076V139.2C482.411 140.356 483.352 141.293 484.515 141.293H522.884C524.047 141.293 524.988 142.229 524.988 143.385V166.075C524.988 167.231 524.047 168.167 522.884 168.167H484.515C483.352 168.167 482.411 169.104 482.411 170.26V233.069C482.411 245.488 487.006 254.354 501.263 254.354C507.326 254.354 514.69 252.867 522.746 250.857C523.936 250.554 525.127 251.325 525.32 252.537L528.975 274.786Z" fill="white"/>
<rect width="490" height="84" transform="translate(39 34)" fill="white"/>
<path d="M73.4436 65.2L74.2436 69.1C75.4436 67.7333 76.8602 66.6667 78.4936 65.9C80.1269 65.1 81.7936 64.7 83.4936 64.7C85.7269 64.7 87.6936 65.25 89.3936 66.35C91.0936 67.4167 92.4102 68.95 93.3436 70.95C94.2769 72.95 94.7436 75.2833 94.7436 77.95C94.7436 80.65 94.1936 83.0167 93.0936 85.05C92.0269 87.0833 90.5436 88.65 88.6436 89.75C86.7436 90.85 84.6102 91.4 82.2436 91.4C80.8436 91.4 79.4436 91.1333 78.0436 90.6C76.6436 90.0667 75.4269 89.3833 74.3936 88.55V101.35L71.8436 101.95V65.2H73.4436ZM82.0436 89.05C85.1102 89.05 87.5602 88.0833 89.3936 86.15C91.2602 84.1833 92.1936 81.4667 92.1936 78C92.1936 74.5333 91.4102 71.85 89.8436 69.95C88.2769 68.0167 86.0936 67.05 83.2936 67.05C81.5936 67.05 79.9769 67.4667 78.4436 68.3C76.9102 69.1333 75.5602 70.2833 74.3936 71.75V85.95C75.4936 86.9167 76.6936 87.6833 77.9936 88.25C79.3269 88.7833 80.6769 89.05 82.0436 89.05ZM100.887 65.2L101.737 69.45C103.07 67.9167 104.604 66.7667 106.337 66C108.07 65.2 109.82 64.8 111.587 64.8H112.237V67.2H111.237C109.504 67.2 107.82 67.6167 106.187 68.45C104.587 69.2833 103.137 70.5333 101.837 72.2V91H99.2869V65.2H100.887ZM124.983 91.5C122.616 91.5 120.499 90.9333 118.633 89.8C116.799 88.6333 115.366 87.0333 114.333 85C113.299 82.9667 112.783 80.65 112.783 78.05C112.783 75.5167 113.299 73.25 114.333 71.25C115.399 69.2167 116.866 67.6167 118.733 66.45C120.599 65.2833 122.683 64.7 124.983 64.7C127.349 64.7 129.466 65.2667 131.333 66.4C133.199 67.5333 134.649 69.1167 135.683 71.15C136.716 73.15 137.233 75.45 137.233 78.05C137.233 80.6167 136.699 82.9167 135.633 84.95C134.599 86.9833 133.149 88.5833 131.283 89.75C129.416 90.9167 127.316 91.5 124.983 91.5ZM124.983 89.2C126.883 89.2 128.566 88.7333 130.033 87.8C131.533 86.8667 132.683 85.55 133.483 83.85C134.316 82.15 134.733 80.2167 134.733 78.05C134.733 75.8833 134.316 73.9667 133.483 72.3C132.683 70.6333 131.533 69.35 130.033 68.45C128.566 67.5167 126.883 67.05 124.983 67.05C123.083 67.05 121.399 67.5167 119.933 68.45C118.466 69.3833 117.333 70.6833 116.533 72.35C115.733 74.0167 115.333 75.9167 115.333 78.05C115.333 80.2167 115.733 82.15 116.533 83.85C117.333 85.55 118.466 86.8667 119.933 87.8C121.399 88.7333 123.083 89.2 124.983 89.2ZM151.471 102.1C147.305 102.1 143.905 100.783 141.271 98.15L142.821 96.45C145.121 98.6833 147.988 99.8 151.421 99.8C154.255 99.8 156.471 98.9833 158.071 97.35C159.705 95.75 160.521 93.45 160.521 90.45V86.4C159.288 87.7 157.871 88.7333 156.271 89.5C154.671 90.2333 153.055 90.6 151.421 90.6C149.221 90.6 147.271 90.0667 145.571 89C143.905 87.9333 142.605 86.4333 141.671 84.5C140.738 82.5667 140.271 80.3167 140.271 77.75C140.271 75.15 140.805 72.8667 141.871 70.9C142.971 68.9333 144.455 67.4167 146.321 66.35C148.221 65.25 150.338 64.7 152.671 64.7C154.171 64.7 155.655 65 157.121 65.6C158.588 66.1667 159.855 66.9167 160.921 67.85L161.471 65.2H163.021V90.5C163.021 92.8333 162.538 94.8667 161.571 96.6C160.638 98.3667 159.288 99.7167 157.521 100.65C155.788 101.617 153.771 102.1 151.471 102.1ZM151.721 88.3C153.355 88.3 154.938 87.9 156.471 87.1C158.005 86.2667 159.355 85.1167 160.521 83.65V70.1C159.421 69.1333 158.205 68.3833 156.871 67.85C155.571 67.2833 154.238 67 152.871 67C149.871 67 147.438 67.95 145.571 69.85C143.705 71.75 142.771 74.3833 142.771 77.75C142.771 81.0167 143.571 83.6 145.171 85.5C146.771 87.3667 148.955 88.3 151.721 88.3ZM170.571 65.2L171.421 69.45C172.754 67.9167 174.287 66.7667 176.021 66C177.754 65.2 179.504 64.8 181.271 64.8H181.921V67.2H180.921C179.187 67.2 177.504 67.6167 175.871 68.45C174.271 69.2833 172.821 70.5333 171.521 72.2V91H168.971V65.2H170.571ZM190.807 91.5C188.374 91.5 186.44 90.8667 185.007 89.6C183.607 88.3 182.907 86.5667 182.907 84.4C182.907 82.0667 183.79 80.2333 185.557 78.9C187.357 77.5333 189.824 76.85 192.957 76.85H200.507V75.35C200.507 72.5167 199.907 70.4333 198.707 69.1C197.507 67.7333 195.657 67.05 193.157 67.05C191.79 67.05 190.44 67.35 189.107 67.95C187.807 68.5167 186.64 69.3167 185.607 70.35L183.957 68.8C185.124 67.5333 186.524 66.5333 188.157 65.8C189.79 65.0667 191.474 64.7 193.207 64.7C199.707 64.7 202.957 68.35 202.957 75.65V91H201.357L200.607 86.95C199.307 88.35 197.807 89.4667 196.107 90.3C194.407 91.1 192.64 91.5 190.807 91.5ZM191.007 89.2C192.774 89.2 194.49 88.7667 196.157 87.9C197.824 87.0333 199.274 85.8667 200.507 84.4V79.05H192.857C190.524 79.05 188.69 79.5167 187.357 80.45C186.024 81.3833 185.357 82.6833 185.357 84.35C185.357 85.8167 185.874 87 186.907 87.9C187.94 88.7667 189.307 89.2 191.007 89.2ZM210.174 65.2L211.024 69.4C212.257 67.9 213.624 66.75 215.124 65.95C216.624 65.1167 218.141 64.7 219.674 64.7C221.374 64.7 222.841 65.0833 224.074 65.85C225.307 66.6167 226.257 67.75 226.924 69.25C228.157 67.7833 229.591 66.6667 231.224 65.9C232.891 65.1 234.541 64.7 236.174 64.7C238.874 64.7 240.974 65.5833 242.474 67.35C244.007 69.1167 244.774 71.7167 244.774 75.15V91H242.274V75.5C242.274 72.7667 241.741 70.6833 240.674 69.25C239.607 67.7833 237.957 67.05 235.724 67.05C234.257 67.05 232.824 67.4167 231.424 68.15C230.024 68.8833 228.757 69.9667 227.624 71.4C227.891 72.5667 228.024 73.8167 228.024 75.15V91H225.524V75.5C225.524 69.8667 223.424 67.05 219.224 67.05C217.757 67.05 216.324 67.5 214.924 68.4C213.557 69.3 212.291 70.5667 211.124 72.2V91H208.574V65.2H210.174ZM256.973 91.5C254.54 91.5 252.606 90.8667 251.173 89.6C249.773 88.3 249.073 86.5667 249.073 84.4C249.073 82.0667 249.956 80.2333 251.723 78.9C253.523 77.5333 255.99 76.85 259.123 76.85H266.673V75.35C266.673 72.5167 266.073 70.4333 264.873 69.1C263.673 67.7333 261.823 67.05 259.323 67.05C257.956 67.05 256.606 67.35 255.273 67.95C253.973 68.5167 252.806 69.3167 251.773 70.35L250.123 68.8C251.29 67.5333 252.69 66.5333 254.323 65.8C255.956 65.0667 257.64 64.7 259.373 64.7C265.873 64.7 269.123 68.35 269.123 75.65V91H267.523L266.773 86.95C265.473 88.35 263.973 89.4667 262.273 90.3C260.573 91.1 258.806 91.5 256.973 91.5ZM257.173 89.2C258.94 89.2 260.656 88.7667 262.323 87.9C263.99 87.0333 265.44 85.8667 266.673 84.4V79.05H259.023C256.69 79.05 254.856 79.5167 253.523 80.45C252.19 81.3833 251.523 82.6833 251.523 84.35C251.523 85.8167 252.04 87 253.073 87.9C254.106 88.7667 255.473 89.2 257.173 89.2ZM295.384 91.5C293.151 91.5 291.184 90.9667 289.484 89.9C287.784 88.8 286.468 87.25 285.534 85.25C284.601 83.25 284.134 80.9 284.134 78.2C284.134 75.5 284.668 73.1333 285.734 71.1C286.834 69.0667 288.334 67.5 290.234 66.4C292.134 65.2667 294.268 64.7 296.634 64.7C298.034 64.7 299.434 64.9667 300.834 65.5C302.234 66.0333 303.468 66.7333 304.534 67.6V54.7L307.034 54.05V91H305.434L304.684 87.1C303.484 88.4667 302.068 89.55 300.434 90.35C298.801 91.1167 297.118 91.5 295.384 91.5ZM295.634 89.15C297.334 89.15 298.951 88.7333 300.484 87.9C302.018 87.0333 303.368 85.85 304.534 84.35V70.15C303.401 69.1833 302.168 68.4167 300.834 67.85C299.534 67.2833 298.201 67 296.834 67C293.768 67 291.301 67.9833 289.434 69.95C287.601 71.9167 286.684 74.65 286.684 78.15C286.684 81.6167 287.468 84.3167 289.034 86.25C290.634 88.1833 292.834 89.15 295.634 89.15ZM323.828 91.5C321.361 91.5 319.194 90.9333 317.328 89.8C315.494 88.6333 314.078 87.0333 313.078 85C312.078 82.9333 311.578 80.5833 311.578 77.95C311.578 75.4167 312.061 73.15 313.028 71.15C314.028 69.1167 315.411 67.5333 317.178 66.4C318.978 65.2667 320.994 64.7 323.228 64.7C325.461 64.7 327.394 65.25 329.028 66.35C330.694 67.45 331.961 69 332.828 71C333.694 72.9667 334.128 75.2667 334.128 77.9V78.7H314.078C314.178 81.8 315.111 84.3167 316.878 86.25C318.678 88.1833 321.011 89.15 323.878 89.15C325.244 89.15 326.561 88.9 327.828 88.4C329.094 87.8667 330.228 87.1167 331.228 86.15L332.828 87.7C330.228 90.2333 327.228 91.5 323.828 91.5ZM331.578 76.45C331.411 73.5167 330.578 71.2 329.078 69.5C327.611 67.8 325.611 66.95 323.078 66.95C320.578 66.95 318.511 67.8333 316.878 69.6C315.278 71.3333 314.361 73.6167 314.128 76.45H331.578ZM360.257 91.5C357.791 91.5 355.624 90.9333 353.757 89.8C351.924 88.6333 350.507 87.0333 349.507 85C348.507 82.9333 348.007 80.5833 348.007 77.95C348.007 75.4167 348.491 73.15 349.457 71.15C350.457 69.1167 351.841 67.5333 353.607 66.4C355.407 65.2667 357.424 64.7 359.657 64.7C361.891 64.7 363.824 65.25 365.457 66.35C367.124 67.45 368.391 69 369.257 71C370.124 72.9667 370.557 75.2667 370.557 77.9V78.7H350.507C350.607 81.8 351.541 84.3167 353.307 86.25C355.107 88.1833 357.441 89.15 360.307 89.15C361.674 89.15 362.991 88.9 364.257 88.4C365.524 87.8667 366.657 87.1167 367.657 86.15L369.257 87.7C366.657 90.2333 363.657 91.5 360.257 91.5ZM368.007 76.45C367.841 73.5167 367.007 71.2 365.507 69.5C364.041 67.8 362.041 66.95 359.507 66.95C357.007 66.95 354.941 67.8333 353.307 69.6C351.707 71.3333 350.791 73.6167 350.557 76.45H368.007ZM383.643 91.5C379.476 91.5 376.059 90.1333 373.393 87.4L375.043 85.75C376.209 86.9167 377.493 87.7833 378.893 88.35C380.326 88.8833 381.943 89.15 383.743 89.15C385.876 89.15 387.526 88.75 388.693 87.95C389.859 87.15 390.443 86.0167 390.443 84.55C390.443 82.9833 389.859 81.7833 388.693 80.95C387.526 80.0833 385.676 79.4 383.143 78.9C380.943 78.4667 379.209 77.95 377.943 77.35C376.676 76.75 375.759 75.9833 375.193 75.05C374.626 74.1167 374.343 72.9167 374.343 71.45C374.343 70.2167 374.726 69.0833 375.493 68.05C376.259 67.0167 377.326 66.2 378.693 65.6C380.059 65 381.626 64.7 383.393 64.7C386.859 64.7 389.743 65.9333 392.043 68.4L390.393 70C388.426 68.0333 386.093 67.05 383.393 67.05C381.359 67.05 379.743 67.45 378.543 68.25C377.343 69.05 376.743 70.1333 376.743 71.5C376.743 72.5333 376.993 73.3667 377.493 74C377.993 74.6 378.759 75.1 379.793 75.5C380.859 75.9 382.343 76.3 384.243 76.7C387.309 77.3333 389.526 78.2667 390.893 79.5C392.293 80.7 392.993 82.3333 392.993 84.4C392.993 86.6 392.176 88.3333 390.543 89.6C388.909 90.8667 386.609 91.5 383.643 91.5ZM405.759 91.45C403.093 91.45 401.026 90.6333 399.559 89C398.126 87.3333 397.409 85.0333 397.409 82.1V58.8L399.959 58.2V65.2H410.509V67.45H399.959V82.25C399.959 84.3833 400.443 86.0667 401.409 87.3C402.409 88.5 403.826 89.1 405.659 89.1C406.626 89.1 407.426 89 408.059 88.8C408.726 88.5667 409.359 88.2 409.959 87.7L411.309 89.45C409.676 90.7833 407.826 91.45 405.759 91.45ZM420.807 91.5C418.374 91.5 416.44 90.8667 415.007 89.6C413.607 88.3 412.907 86.5667 412.907 84.4C412.907 82.0667 413.79 80.2333 415.557 78.9C417.357 77.5333 419.824 76.85 422.957 76.85H430.507V75.35C430.507 72.5167 429.907 70.4333 428.707 69.1C427.507 67.7333 425.657 67.05 423.157 67.05C421.79 67.05 420.44 67.35 419.107 67.95C417.807 68.5167 416.64 69.3167 415.607 70.35L413.957 68.8C415.124 67.5333 416.524 66.5333 418.157 65.8C419.79 65.0667 421.474 64.7 423.207 64.7C429.707 64.7 432.957 68.35 432.957 75.65V91H431.357L430.607 86.95C429.307 88.35 427.807 89.4667 426.107 90.3C424.407 91.1 422.64 91.5 420.807 91.5ZM421.007 89.2C422.774 89.2 424.49 88.7667 426.157 87.9C427.824 87.0333 429.274 85.8667 430.507 84.4V79.05H422.857C420.524 79.05 418.69 79.5167 417.357 80.45C416.024 81.3833 415.357 82.6833 415.357 84.35C415.357 85.8167 415.874 87 416.907 87.9C417.94 88.7667 419.307 89.2 421.007 89.2ZM426.957 54.5H430.257L423.757 61.05H420.857L426.957 54.5ZM448.274 102.1C444.107 102.1 440.707 100.783 438.074 98.15L439.624 96.45C441.924 98.6833 444.791 99.8 448.224 99.8C451.057 99.8 453.274 98.9833 454.874 97.35C456.507 95.75 457.324 93.45 457.324 90.45V86.4C456.091 87.7 454.674 88.7333 453.074 89.5C451.474 90.2333 449.857 90.6 448.224 90.6C446.024 90.6 444.074 90.0667 442.374 89C440.707 87.9333 439.407 86.4333 438.474 84.5C437.541 82.5667 437.074 80.3167 437.074 77.75C437.074 75.15 437.607 72.8667 438.674 70.9C439.774 68.9333 441.257 67.4167 443.124 66.35C445.024 65.25 447.141 64.7 449.474 64.7C450.974 64.7 452.457 65 453.924 65.6C455.391 66.1667 456.657 66.9167 457.724 67.85L458.274 65.2H459.824V90.5C459.824 92.8333 459.341 94.8667 458.374 96.6C457.441 98.3667 456.091 99.7167 454.324 100.65C452.591 101.617 450.574 102.1 448.274 102.1ZM448.524 88.3C450.157 88.3 451.741 87.9 453.274 87.1C454.807 86.2667 456.157 85.1167 457.324 83.65V70.1C456.224 69.1333 455.007 68.3833 453.674 67.85C452.374 67.2833 451.041 67 449.674 67C446.674 67 444.241 67.95 442.374 69.85C440.507 71.75 439.574 74.3833 439.574 77.75C439.574 81.0167 440.374 83.6 441.974 85.5C443.574 87.3667 445.757 88.3 448.524 88.3ZM465.873 65.2H468.423V91H465.873V65.2ZM467.173 59.55C466.607 59.55 466.14 59.3667 465.773 59C465.44 58.6333 465.273 58.1833 465.273 57.65C465.273 57.0833 465.44 56.6167 465.773 56.25C466.14 55.85 466.607 55.65 467.173 55.65C467.74 55.65 468.19 55.85 468.523 56.25C468.89 56.6167 469.073 57.0833 469.073 57.65C469.073 58.1833 468.89 58.6333 468.523 59C468.19 59.3667 467.74 59.55 467.173 59.55ZM485.268 91.5C482.901 91.5 480.784 90.9333 478.918 89.8C477.084 88.6333 475.651 87.0333 474.618 85C473.584 82.9667 473.068 80.65 473.068 78.05C473.068 75.5167 473.584 73.25 474.618 71.25C475.684 69.2167 477.151 67.6167 479.018 66.45C480.884 65.2833 482.968 64.7 485.268 64.7C487.634 64.7 489.751 65.2667 491.618 66.4C493.484 67.5333 494.934 69.1167 495.968 71.15C497.001 73.15 497.518 75.45 497.518 78.05C497.518 80.6167 496.984 82.9167 495.918 84.95C494.884 86.9833 493.434 88.5833 491.568 89.75C489.701 90.9167 487.601 91.5 485.268 91.5ZM485.268 89.2C487.168 89.2 488.851 88.7333 490.318 87.8C491.818 86.8667 492.968 85.55 493.768 83.85C494.601 82.15 495.018 80.2167 495.018 78.05C495.018 75.8833 494.601 73.9667 493.768 72.3C492.968 70.6333 491.818 69.35 490.318 68.45C488.851 67.5167 487.168 67.05 485.268 67.05C483.368 67.05 481.684 67.5167 480.218 68.45C478.751 69.3833 477.618 70.6833 476.818 72.35C476.018 74.0167 475.618 75.9167 475.618 78.05C475.618 80.2167 476.018 82.15 476.818 83.85C477.618 85.55 478.751 86.8667 480.218 87.8C481.684 88.7333 483.368 89.2 485.268 89.2Z" fill="black"/>
<rect x="7.5" y="7.5" width="551" height="301" stroke="#4F4F51"/>
<rect x="0.5" y="0.5" width="13" height="13" fill="white" stroke="#4F4F51"/>
<rect x="552.5" y="0.5" width="13" height="13" fill="white" stroke="#4F4F51"/>
<rect x="0.5" y="300.5" width="13" height="12" fill="white" stroke="#4F4F51"/>
<rect x="552.5" y="300.5" width="13" height="12" fill="white" stroke="#4F4F51"/>
</svg>
