<svg width="56" height="56" viewBox="0 0 56 56" fill="none" xmlns="http://www.w3.org/2000/svg">
<circle cx="28" cy="28" r="28" fill="#00FF5F"/>
<g clip-path="url(#clip0_117_10)">
<path d="M21.5523 41H34.4475C36.4063 41 37.9999 39.3672 37.9999 37.36V36.2498C37.9999 34.1802 36.9062 32.2666 35.1427 31.2578L29.0402 27.7608L31.0676 26.5986C32.0293 26.0474 32.6256 25.0048 32.6256 23.8764V18.12C32.6256 16.3988 31.2604 15 29.5807 15H26.4165C24.7367 15 23.3716 16.3988 23.3716 18.12V23.8764C23.3716 25.0048 23.9679 26.0474 24.9296 26.5986L26.957 27.7608L20.8545 31.2578C19.0909 32.2666 17.9973 34.1802 17.9973 36.2498V37.36C17.9973 39.3672 19.5908 41 21.5497 41H21.5523ZM25.4269 25.6912C24.7849 25.3246 24.3891 24.6278 24.3891 23.8764V18.12C24.3891 16.9734 25.3 16.04 26.419 16.04H29.5832C30.7022 16.04 31.6131 16.9734 31.6131 18.12V23.8764C31.6131 24.6278 31.2148 25.3246 30.5728 25.6912L27.9999 27.1654L25.4269 25.6912ZM19.0148 36.2498C19.0148 34.5572 19.9105 32.992 21.3518 32.1652L27.9999 28.3562L34.6479 32.1652C36.0892 32.992 36.9849 34.5572 36.9849 36.2498V37.36C36.9849 38.7926 35.8456 39.96 34.4475 39.96H21.5523C20.1541 39.96 19.0148 38.7926 19.0148 37.36V36.2498Z" fill="black"/>
</g>
<defs>
<clipPath id="clip0_117_10">
<rect width="20" height="26" fill="white" transform="translate(18 15)"/>
</clipPath>
</defs>
</svg>
